<svg width="32" height="32" viewBox="0 0 32 32" fill="none" xmlns="http://www.w3.org/2000/svg">
<path d="M11.0008 23.18L9.00084 21.179L7.58984 22.589L11.0008 26L17.0008 20L15.5908 18.59L11.0008 23.18ZM28.0008 30H24.0008V28H28.0008V16H24.0008V8C23.9995 6.93954 23.5777 5.92289 22.8278 5.17303C22.0779 4.42318 21.0613 4.00132 20.0008 4V2C21.5916 2.00185 23.1166 2.63459 24.2414 3.75941C25.3663 4.88422 25.999 6.40927 26.0008 8V14H28.0008C28.5313 14 29.04 14.2107 29.4151 14.5858C29.7901 14.9609 30.0008 15.4696 30.0008 16V28C30.0008 28.5304 29.7901 29.0391 29.4151 29.4142C29.04 29.7893 28.5313 30 28.0008 30Z" fill="white"/>
<path d="M20 14H18V8C18 6.4087 17.3679 4.88258 16.2426 3.75736C15.1174 2.63214 13.5913 2 12 2C10.4087 2 8.88258 2.63214 7.75736 3.75736C6.63214 4.88258 6 6.4087 6 8V14H4C3.46957 14 2.96086 14.2107 2.58579 14.5858C2.21071 14.9609 2 15.4696 2 16V28C2 28.5304 2.21071 29.0391 2.58579 29.4142C2.96086 29.7893 3.46957 30 4 30H20C20.5304 30 21.0391 29.7893 21.4142 29.4142C21.7893 29.0391 22 28.5304 22 28V16C22 15.4696 21.7893 14.9609 21.4142 14.5858C21.0391 14.2107 20.5304 14 20 14ZM8 8C8 6.93913 8.42143 5.92172 9.17157 5.17157C9.92172 4.42143 10.9391 4 12 4C13.0609 4 14.0783 4.42143 14.8284 5.17157C15.5786 5.92172 16 6.93913 16 8V14H8V8ZM20 28H4V16H20V28Z" fill="white"/>
</svg>
