<svg width="24" height="24" viewBox="0 0 24 24" fill="none" xmlns="http://www.w3.org/2000/svg">
<path d="M10.9743 20.7002C10.791 20.5169 10.6868 20.2961 10.6618 20.0377C10.6368 19.7794 10.741 19.5336 10.9743 19.3002L19.2993 10.9752C19.5327 10.7419 19.7785 10.6377 20.0368 10.6627C20.2952 10.6877 20.516 10.7919 20.6993 10.9752C20.916 11.1919 21.016 11.4336 20.9993 11.7002C20.9827 11.9669 20.8743 12.2002 20.6743 12.4002L12.3743 20.7002C12.1743 20.9002 11.941 21.0002 11.6743 21.0002C11.4077 21.0002 11.1743 20.9002 10.9743 20.7002ZM18.1993 21.0002C17.966 21.0002 17.8077 20.9002 17.7243 20.7002C17.641 20.5002 17.6827 20.3169 17.8493 20.1502L20.1493 17.8502C20.316 17.6836 20.4993 17.6419 20.6993 17.7252C20.8993 17.8086 20.9993 17.9669 20.9993 18.2002V20.0002C20.9993 20.2836 20.9035 20.5211 20.7118 20.7127C20.5202 20.9044 20.2827 21.0002 19.9993 21.0002H18.1993ZM3.27432 20.7252C3.09099 20.5419 2.99099 20.3169 2.97432 20.0502C2.95766 19.7836 3.06599 19.5336 3.29932 19.3002L19.3243 3.27522C19.5743 3.02522 19.8327 2.91688 20.0993 2.95022C20.366 2.98355 20.591 3.09188 20.7743 3.27522C20.9577 3.45855 21.0577 3.68355 21.0743 3.95022C21.091 4.21688 20.9743 4.46688 20.7243 4.70022L4.67432 20.7252C4.44099 20.9586 4.19516 21.0627 3.93682 21.0377C3.67849 21.0127 3.45766 20.9086 3.27432 20.7252ZM3.27432 13.0252C3.09099 12.8419 2.99099 12.6169 2.97432 12.3502C2.95766 12.0836 3.06599 11.8336 3.29932 11.6002L11.5993 3.30022C11.8327 3.06688 12.0785 2.96272 12.3368 2.98772C12.5952 3.01272 12.816 3.11688 12.9993 3.30022C13.1827 3.48355 13.2868 3.70438 13.3118 3.96272C13.3368 4.22105 13.2327 4.46688 12.9993 4.70022L4.67432 13.0252C4.44099 13.2586 4.19516 13.3627 3.93682 13.3377C3.67849 13.3127 3.45766 13.2086 3.27432 13.0252ZM2.99932 5.80022V4.00022C2.99932 3.71688 3.09516 3.47938 3.28682 3.28772C3.47849 3.09605 3.71599 3.00022 3.99932 3.00022H5.79932C6.03266 3.00022 6.19099 3.10022 6.27432 3.30022C6.35766 3.50022 6.31599 3.68355 6.14932 3.85022L3.84932 6.15022C3.68266 6.31688 3.49932 6.35855 3.29932 6.27522C3.09932 6.19188 2.99932 6.03355 2.99932 5.80022Z" fill="#111111"/>
</svg>
