<svg width="17" height="17" viewBox="0 0 17 17" fill="none" xmlns="http://www.w3.org/2000/svg">
<path d="M3.54167 4.95752H4.25C4.62572 4.95752 4.98606 4.80826 5.25173 4.54259C5.51741 4.27691 5.66667 3.91658 5.66667 3.54085C5.66667 3.35299 5.74129 3.17282 5.87413 3.03999C6.00697 2.90715 6.18714 2.83252 6.375 2.83252H10.625C10.8129 2.83252 10.993 2.90715 11.1259 3.03999C11.2587 3.17282 11.3333 3.35299 11.3333 3.54085C11.3333 3.91658 11.4826 4.27691 11.7483 4.54259C12.0139 4.80826 12.3743 4.95752 12.75 4.95752H13.4583C13.8341 4.95752 14.1944 5.10677 14.4601 5.37245C14.7257 5.63813 14.875 5.99846 14.875 6.37419V12.7492C14.875 13.1249 14.7257 13.4852 14.4601 13.7509C14.1944 14.0166 13.8341 14.1659 13.4583 14.1659H3.54167C3.16594 14.1659 2.80561 14.0166 2.53993 13.7509C2.27426 13.4852 2.125 13.1249 2.125 12.7492V6.37419C2.125 5.99846 2.27426 5.63813 2.53993 5.37245C2.80561 5.10677 3.16594 4.95752 3.54167 4.95752Z" fill="#AAAAAA"/>
<path d="M6.375 9.20752C6.375 9.7711 6.59888 10.3116 6.9974 10.7101C7.39591 11.1086 7.93641 11.3325 8.5 11.3325C9.06358 11.3325 9.60409 11.1086 10.0026 10.7101C10.4011 10.3116 10.625 9.7711 10.625 9.20752C10.625 8.64393 10.4011 8.10343 10.0026 7.70492C9.60409 7.3064 9.06358 7.08252 8.5 7.08252C7.93641 7.08252 7.39591 7.3064 6.9974 7.70492C6.59888 8.10343 6.375 8.64393 6.375 9.20752Z" fill="#AAAAAA"/>
<path d="M3.54167 4.95752H4.25C4.62572 4.95752 4.98606 4.80826 5.25173 4.54259C5.51741 4.27691 5.66667 3.91658 5.66667 3.54085C5.66667 3.35299 5.74129 3.17282 5.87413 3.03999C6.00697 2.90715 6.18714 2.83252 6.375 2.83252H10.625C10.8129 2.83252 10.993 2.90715 11.1259 3.03999C11.2587 3.17282 11.3333 3.35299 11.3333 3.54085C11.3333 3.91658 11.4826 4.27691 11.7483 4.54259C12.0139 4.80826 12.3743 4.95752 12.75 4.95752H13.4583C13.8341 4.95752 14.1944 5.10677 14.4601 5.37245C14.7257 5.63813 14.875 5.99846 14.875 6.37419V12.7492C14.875 13.1249 14.7257 13.4852 14.4601 13.7509C14.1944 14.0166 13.8341 14.1659 13.4583 14.1659H3.54167C3.16594 14.1659 2.80561 14.0166 2.53993 13.7509C2.27426 13.4852 2.125 13.1249 2.125 12.7492V6.37419C2.125 5.99846 2.27426 5.63813 2.53993 5.37245C2.80561 5.10677 3.16594 4.95752 3.54167 4.95752Z" stroke="#AAAAAA" stroke-width="1.41667" stroke-linecap="round" stroke-linejoin="round"/>
<path d="M6.375 9.20752C6.375 9.7711 6.59888 10.3116 6.9974 10.7101C7.39591 11.1086 7.93641 11.3325 8.5 11.3325C9.06358 11.3325 9.60409 11.1086 10.0026 10.7101C10.4011 10.3116 10.625 9.7711 10.625 9.20752C10.625 8.64393 10.4011 8.10343 10.0026 7.70492C9.60409 7.3064 9.06358 7.08252 8.5 7.08252C7.93641 7.08252 7.39591 7.3064 6.9974 7.70492C6.59888 8.10343 6.375 8.64393 6.375 9.20752Z" stroke="#AAAAAA" stroke-width="1.41667" stroke-linecap="round" stroke-linejoin="round"/>
<circle cx="8.49877" cy="9.39476" r="2.68421" stroke="#F9FAFB" stroke-width="0.894737"/>
</svg>
