<svg width="30" height="30" viewBox="0 0 30 30" fill="none" xmlns="http://www.w3.org/2000/svg">
<path d="M15 10C17.4583 10 19.8804 10.495 22.2663 11.485C24.6521 12.475 26.7717 13.9592 28.625 15.9375C28.875 16.1875 29 16.4792 29 16.8125C29 17.1458 28.875 17.4375 28.625 17.6875L25.75 20.5C25.5208 20.7292 25.255 20.8542 24.9525 20.875C24.65 20.8958 24.3742 20.8125 24.125 20.625L20.5 17.875C20.3333 17.75 20.2083 17.6042 20.125 17.4375C20.0417 17.2708 20 17.0833 20 16.875V13.3125C19.2083 13.0625 18.3958 12.8646 17.5625 12.7188C16.7292 12.5729 15.875 12.5 15 12.5C14.125 12.5 13.2708 12.5729 12.4375 12.7188C11.6042 12.8646 10.7917 13.0625 10 13.3125V16.875C10 17.0833 9.95833 17.2708 9.875 17.4375C9.79167 17.6042 9.66667 17.75 9.5 17.875L5.875 20.625C5.625 20.8125 5.34875 20.8958 5.04625 20.875C4.74375 20.8542 4.47833 20.7292 4.25 20.5L1.375 17.6875C1.125 17.4375 1 17.1458 1 16.8125C1 16.4792 1.125 16.1875 1.375 15.9375C3.20833 13.9583 5.32292 12.4742 7.71875 11.485C10.1146 10.4958 12.5417 10.0008 15 10Z" fill="white"/>
</svg>
