<svg width="48" height="48" viewBox="0 0 48 48" fill="none" xmlns="http://www.w3.org/2000/svg">
<path d="M22.6 27.85V36.4C22.6 36.8333 22.7417 37.1917 23.025 37.475C23.3083 37.7583 23.6667 37.9 24.1 37.9C24.5333 37.9 24.8917 37.7583 25.175 37.475C25.4583 37.1917 25.6 36.8333 25.6 36.4V27.85L28.65 30.9C28.75 31 29 30.9667 29.4 30.8C29.8 30.6333 30.175 30.4833 30.525 30.35C30.875 30.2167 31.1167 30.1583 31.25 30.175C31.3833 30.1917 31.2167 30.4333 30.75 30.9C31.05 30.6 31.1917 30.25 31.175 29.85C31.1583 29.45 31 29.1 30.7 28.8L25.05 23.3C24.8833 23.1333 24.7167 23.0167 24.55 22.95C24.3833 22.8833 24.2 22.85 24 22.85C23.8 22.85 23.6167 22.8833 23.45 22.95C23.2833 23.0167 23.1167 23.1333 22.95 23.3L17.35 28.9C17.05 29.2 16.9 29.55 16.9 29.95C16.9 30.35 17.05 30.7 17.35 31C17.65 31.3 18 31.45 18.4 31.45C18.8 31.45 19.15 31.3 19.45 31L22.6 27.85ZM11 44C10.2 44 9.5 43.7 8.9 43.1C8.3 42.5 8 41.8 8 41V7C8 6.2 8.3 5.5 8.9 4.9C9.5 4.3 10.2 4 11 4H27.8C28.2 4 28.5917 4.08333 28.975 4.25C29.3583 4.41667 29.6833 4.63333 29.95 4.9L39.1 14.05C39.3667 14.3167 39.5833 14.6417 39.75 15.025C39.9167 15.4083 40 15.8 40 16.2V41C40 41.8 39.7 42.5 39.1 43.1C38.5 43.7 37.8 44 37 44H11ZM27.55 14.8C27.55 15.2333 27.6917 15.5917 27.975 15.875C28.2583 16.1583 28.6167 16.3 29.05 16.3H37L27.55 7V14.8Z" fill="#AAAAAA"/>
</svg>
