<svg width="24" height="24" viewBox="0 0 24 24" fill="none" xmlns="http://www.w3.org/2000/svg">
<path d="M4 19.5V9.75C4 9.5125 4.05317 9.2875 4.1595 9.075C4.26567 8.8625 4.4125 8.6875 4.6 8.55L11.1 3.675C11.3613 3.475 11.66 3.375 11.996 3.375C12.332 3.375 12.6333 3.475 12.9 3.675L19.4 8.55C19.5875 8.6875 19.7344 8.8625 19.8408 9.075C19.9469 9.2875 20 9.5125 20 9.75V19.5C20 19.9125 19.8532 20.2656 19.5595 20.5592C19.2657 20.8531 18.9125 21 18.5 21H14.75C14.5375 21 14.3594 20.9281 14.2158 20.7843C14.0719 20.6406 14 20.4625 14 20.25V14.75C14 14.5375 13.9282 14.3593 13.7845 14.2155C13.6407 14.0718 13.4625 14 13.25 14H10.75C10.5375 14 10.3594 14.0718 10.2158 14.2155C10.0719 14.3593 10 14.5375 10 14.75V20.25C10 20.4625 9.92817 20.6406 9.7845 20.7843C9.64067 20.9281 9.4625 21 9.25 21H5.5C5.0875 21 4.73442 20.8531 4.44075 20.5592C4.14692 20.2656 4 19.9125 4 19.5Z" fill="#AAAAAA"/>
</svg>
