<svg width="97" height="84" viewBox="0 0 97 84" fill="none" xmlns="http://www.w3.org/2000/svg">
<path d="M69.3814 1.37903C74.078 -1.09032 79.8388 -0.181948 83.5477 3.61279L85.0242 5.1235C86.5704 6.70553 87.6493 8.68419 88.1415 10.8409L95.7577 44.2093C96.5703 47.7697 95.7174 51.5063 93.4405 54.3615L73.9843 78.7587C71.4889 81.8879 67.5977 83.5669 63.6091 83.2357L17.0855 79.3717C12.3045 78.9747 8.21948 75.7682 6.69812 71.2183L0.618504 53.0365C-0.0798278 50.948 -0.190019 48.7077 0.299996 46.5608L5.29619 24.671C7.1196 16.6821 16.6169 13.2832 23.0952 18.301C26.5682 20.991 31.292 21.4054 35.1803 19.3611L69.3814 1.37903Z" fill="url(#paint0_linear_469_1175)"/>
<defs>
<linearGradient id="paint0_linear_469_1175" x1="48.2972" y1="-2.78271" x2="48.2972" y2="83.7657" gradientUnits="userSpaceOnUse">
<stop stop-color="#FF7038" stop-opacity="0.2"/>
<stop offset="1" stop-color="#DF4F16"/>
</linearGradient>
</defs>
</svg>
