<svg width="24" height="24" viewBox="0 0 24 24" fill="none" xmlns="http://www.w3.org/2000/svg">
<path d="M0.949219 17.6501C0.949219 17.0668 1.09922 16.5376 1.39922 16.0626C1.69922 15.5876 2.11589 15.2334 2.64922 15.0001C3.86589 14.4668 4.96172 14.0834 5.93672 13.8501C6.91172 13.6168 7.91589 13.5001 8.94922 13.5001C9.98255 13.5001 10.9826 13.6168 11.9492 13.8501C12.9159 14.0834 14.0076 14.4668 15.2242 15.0001C15.7576 15.2334 16.1784 15.5876 16.4867 16.0626C16.7951 16.5376 16.9492 17.0668 16.9492 17.6501V18.5001C16.9492 18.9168 16.8034 19.2709 16.5117 19.5626C16.2201 19.8543 15.8659 20.0001 15.4492 20.0001H2.44922C2.03255 20.0001 1.67839 19.8543 1.38672 19.5626C1.09505 19.2709 0.949219 18.9168 0.949219 18.5001V17.6501ZM18.0992 20.0001C18.1826 19.7501 18.2617 19.5043 18.3367 19.2626C18.4117 19.0209 18.4492 18.7668 18.4492 18.5001V17.6501C18.4492 16.6001 18.2076 15.7543 17.7242 15.1126C17.2409 14.4709 16.5159 13.9334 15.5492 13.5001C16.6992 13.6334 17.7826 13.8168 18.7992 14.0501C19.8159 14.2834 20.6409 14.5668 21.2742 14.9001C21.8242 15.2168 22.2576 15.6084 22.5742 16.0751C22.8909 16.5418 23.0492 17.0668 23.0492 17.6501V18.5001C23.0492 18.9168 22.9034 19.2709 22.6117 19.5626C22.3201 19.8543 21.9659 20.0001 21.5492 20.0001H18.0992ZM8.94922 11.9751C7.84922 11.9751 6.94922 11.6251 6.24922 10.9251C5.54922 10.2251 5.19922 9.3251 5.19922 8.2251C5.19922 7.1251 5.54922 6.2251 6.24922 5.5251C6.94922 4.8251 7.84922 4.4751 8.94922 4.4751C10.0492 4.4751 10.9492 4.8251 11.6492 5.5251C12.3492 6.2251 12.6992 7.1251 12.6992 8.2251C12.6992 9.3251 12.3492 10.2251 11.6492 10.9251C10.9492 11.6251 10.0492 11.9751 8.94922 11.9751ZM17.9492 8.2251C17.9492 9.3251 17.5992 10.2251 16.8992 10.9251C16.1992 11.6251 15.2992 11.9751 14.1992 11.9751C14.0159 11.9751 13.8117 11.9626 13.5867 11.9376C13.3617 11.9126 13.1576 11.8668 12.9742 11.8001C13.3742 11.3834 13.6784 10.8709 13.8867 10.2626C14.0951 9.65426 14.1992 8.9751 14.1992 8.2251C14.1992 7.4751 14.0951 6.8126 13.8867 6.2376C13.6784 5.6626 13.3742 5.13343 12.9742 4.6501C13.1576 4.6001 13.3617 4.55843 13.5867 4.5251C13.8117 4.49176 14.0159 4.4751 14.1992 4.4751C15.2992 4.4751 16.1992 4.8251 16.8992 5.5251C17.5992 6.2251 17.9492 7.1251 17.9492 8.2251Z" fill="#AAAAAA"/>
</svg>
