<svg width="64" height="64" viewBox="0 0 64 64" fill="none" xmlns="http://www.w3.org/2000/svg">
<rect width="64" height="64" rx="32" fill="#F9FAFB"/>
<rect x="0.5" y="0.5" width="63" height="63" rx="31.5" stroke="#AAAAAA" stroke-opacity="0.3"/>
<path d="M32 19.5C33.2361 19.5 34.4445 19.8666 35.4723 20.5533C36.5001 21.2401 37.3012 22.2162 37.7742 23.3582C38.2473 24.5003 38.3711 25.7569 38.1299 26.9693C37.8888 28.1817 37.2935 29.2953 36.4194 30.1694C35.5453 31.0435 34.4317 31.6388 33.2193 31.8799C32.0069 32.1211 30.7503 31.9973 29.6082 31.5242C28.4662 31.0512 27.4901 30.2501 26.8033 29.2223C26.1166 28.1945 25.75 26.9861 25.75 25.75L25.7563 25.4788C25.8261 23.8697 26.5145 22.3497 27.6778 21.2358C28.841 20.1219 30.3894 19.5001 32 19.5Z" fill="#AAAAAA"/>
<path d="M34.5 34.5C36.1576 34.5 37.7473 35.1585 38.9194 36.3306C40.0915 37.5027 40.75 39.0924 40.75 40.75V42C40.75 42.663 40.4866 43.2989 40.0178 43.7678C39.5489 44.2366 38.913 44.5 38.25 44.5H25.75C25.087 44.5 24.4511 44.2366 23.9822 43.7678C23.5134 43.2989 23.25 42.663 23.25 42V40.75C23.25 39.0924 23.9085 37.5027 25.0806 36.3306C26.2527 35.1585 27.8424 34.5 29.5 34.5H34.5Z" fill="#AAAAAA"/>
<path d="M32 19.5C33.2361 19.5 34.4445 19.8666 35.4723 20.5533C36.5001 21.2401 37.3012 22.2162 37.7742 23.3582C38.2473 24.5003 38.3711 25.7569 38.1299 26.9693C37.8888 28.1817 37.2935 29.2953 36.4194 30.1694C35.5453 31.0435 34.4317 31.6388 33.2193 31.8799C32.0069 32.1211 30.7503 31.9973 29.6082 31.5242C28.4662 31.0512 27.4901 30.2501 26.8033 29.2223C26.1166 28.1945 25.75 26.9861 25.75 25.75L25.7563 25.4788C25.8261 23.8697 26.5145 22.3497 27.6778 21.2358C28.841 20.1219 30.3894 19.5001 32 19.5Z" stroke="#AAAAAA"/>
<path d="M34.5 34.5C36.1576 34.5 37.7473 35.1585 38.9194 36.3306C40.0915 37.5027 40.75 39.0924 40.75 40.75V42C40.75 42.663 40.4866 43.2989 40.0178 43.7678C39.5489 44.2366 38.913 44.5 38.25 44.5H25.75C25.087 44.5 24.4511 44.2366 23.9822 43.7678C23.5134 43.2989 23.25 42.663 23.25 42V40.75C23.25 39.0924 23.9085 37.5027 25.0806 36.3306C26.2527 35.1585 27.8424 34.5 29.5 34.5H34.5Z" stroke="#AAAAAA"/>
</svg>
