<svg width="32" height="32" viewBox="0 0 32 32" fill="none" xmlns="http://www.w3.org/2000/svg">
<path d="M15.9993 2.6665C23.3633 2.6665 29.3327 8.63584 29.3327 15.9998C29.3327 23.3638 23.3633 29.3332 15.9993 29.3332C8.63535 29.3332 2.66602 23.3638 2.66602 15.9998C2.66602 8.63584 8.63535 2.6665 15.9993 2.6665ZM15.9993 5.33317C13.1704 5.33317 10.4573 6.45698 8.45688 8.45736C6.45649 10.4578 5.33268 13.1709 5.33268 15.9998C5.33268 18.8288 6.45649 21.5419 8.45688 23.5423C10.4573 25.5427 13.1704 26.6665 15.9993 26.6665C18.8283 26.6665 21.5414 25.5427 23.5418 23.5423C25.5422 21.5419 26.666 18.8288 26.666 15.9998C26.666 13.1709 25.5422 10.4578 23.5418 8.45736C21.5414 6.45698 18.8283 5.33317 15.9993 5.33317ZM15.9993 21.3332C16.353 21.3332 16.6921 21.4736 16.9422 21.7237C17.1922 21.9737 17.3327 22.3129 17.3327 22.6665C17.3327 23.0201 17.1922 23.3593 16.9422 23.6093C16.6921 23.8594 16.353 23.9998 15.9993 23.9998C15.6457 23.9998 15.3066 23.8594 15.0565 23.6093C14.8065 23.3593 14.666 23.0201 14.666 22.6665C14.666 22.3129 14.8065 21.9737 15.0565 21.7237C15.3066 21.4736 15.6457 21.3332 15.9993 21.3332ZM15.9993 8.6665C17.1224 8.66654 18.2104 9.05764 19.0764 9.77264C19.9424 10.4876 20.5324 11.4819 20.7451 12.5846C20.9577 13.6873 20.7798 14.8297 20.2417 15.8155C19.7037 16.8012 18.8392 17.5689 17.7967 17.9865C17.6423 18.0433 17.5031 18.135 17.39 18.2545C17.3313 18.3212 17.322 18.4065 17.3233 18.4945L17.3327 18.6665C17.3323 19.0063 17.2022 19.3332 16.9689 19.5803C16.7356 19.8274 16.4167 19.9761 16.0775 19.9961C15.7382 20.016 15.4042 19.9056 15.1436 19.6875C14.883 19.4694 14.7155 19.16 14.6753 18.8225L14.666 18.6665V18.3332C14.666 16.7958 15.906 15.8732 16.8047 15.5118C17.1704 15.3658 17.4895 15.1229 17.7276 14.8092C17.9657 14.4954 18.1139 14.1228 18.1561 13.7312C18.1984 13.3397 18.1333 12.944 17.9676 12.5867C17.802 12.2294 17.5422 11.9239 17.2161 11.7031C16.8899 11.4824 16.5098 11.3546 16.1166 11.3335C15.7233 11.3125 15.3317 11.399 14.9839 11.5837C14.636 11.7684 14.3451 12.0443 14.1423 12.3819C13.9395 12.7195 13.8324 13.106 13.8327 13.4998C13.8327 13.8535 13.6922 14.1926 13.4422 14.4426C13.1921 14.6927 12.853 14.8332 12.4993 14.8332C12.1457 14.8332 11.8066 14.6927 11.5565 14.4426C11.3065 14.1926 11.166 13.8535 11.166 13.4998C11.166 12.218 11.6752 10.9886 12.5817 10.0822C13.4881 9.17573 14.7175 8.6665 15.9993 8.6665Z" fill="white"/>
</svg>
