<svg width="27" height="27" viewBox="0 0 27 27" fill="none" xmlns="http://www.w3.org/2000/svg">
<g clip-path="url(#clip0_761_1499)">
<path d="M20.6193 13.5C20.6193 11.6279 19.475 10.0248 17.8508 9.3498L16.9859 11.4275C17.798 11.765 18.3676 12.5666 18.3676 13.5053C18.3676 14.4387 17.798 15.2402 16.9859 15.583L17.8508 17.6607C19.475 16.9752 20.6193 15.3721 20.6193 13.5ZM19.5805 5.19434L18.7156 7.27207C21.1572 8.28984 22.8711 10.6945 22.8711 13.5C22.8711 16.3107 21.1572 18.7102 18.7156 19.7279L19.5805 21.8057C22.8342 20.4504 25.1176 17.2441 25.1176 13.5C25.1176 9.75586 22.8342 6.54961 19.5805 5.19434ZM2.62109 7.87324V19.1215H7.11934L14.9926 27V0L7.11934 7.87324H2.62109Z" fill="white"/>
</g>
<defs>
<clipPath id="clip0_761_1499">
<rect width="27" height="27" fill="white"/>
</clipPath>
</defs>
</svg>
