<svg width="243" height="141" viewBox="0 0 243 141" fill="none" xmlns="http://www.w3.org/2000/svg">
<path d="M142.585 4.16175C147.281 1.6924 153.042 2.60077 156.751 6.3955L158.227 7.90622C159.774 9.48825 160.852 11.4669 161.345 13.6236L168.961 46.992C169.773 50.5524 168.921 54.289 166.644 57.1442L147.187 81.5414C144.692 84.6706 140.801 86.3496 136.812 86.0184L90.2887 82.1544C85.5077 81.7574 81.4226 78.5509 79.9012 74.0011L73.8216 55.8192C73.1233 53.7308 73.0131 51.4904 73.5031 49.3435L78.4993 27.4538C80.3227 19.4649 89.82 16.0659 96.2983 21.0838C99.7713 23.7738 104.495 24.1881 108.383 22.1438L142.585 4.16175Z" fill="url(#paint0_linear_469_1183)"/>
<path d="M85.2698 118.548V101.638H91.4691C93.1488 101.638 94.5863 101.966 95.7816 102.623C96.9769 103.279 97.8909 104.232 98.5238 105.482C99.1644 106.732 99.4847 108.248 99.4847 110.029V110.052C99.4847 111.833 99.1683 113.361 98.5355 114.634C97.9027 115.908 96.9886 116.88 95.7933 117.552C94.598 118.216 93.1566 118.548 91.4691 118.548H85.2698ZM88.2816 116.005H91.1292C92.2698 116.005 93.2308 115.779 94.012 115.326C94.8011 114.865 95.3988 114.193 95.805 113.31C96.2113 112.427 96.4144 111.345 96.4144 110.064V110.041C96.4144 108.791 96.2073 107.728 95.7933 106.853C95.3792 105.978 94.7777 105.314 93.9886 104.861C93.2073 104.408 92.2542 104.181 91.1292 104.181H88.2816V116.005ZM103.126 118.548L109.162 101.638H111.705V104.673H110.814L106.29 118.548H103.126ZM106.185 114.177L106.982 111.845H114.728L115.537 114.177H106.185ZM115.431 118.548L110.908 104.673V101.638H112.56L118.595 118.548H115.431ZM130.206 118.865C128.557 118.865 127.131 118.509 125.928 117.798C124.733 117.08 123.807 116.068 123.151 114.763C122.503 113.451 122.178 111.896 122.178 110.099V110.076C122.178 108.279 122.506 106.728 123.163 105.423C123.819 104.111 124.745 103.099 125.94 102.388C127.143 101.677 128.565 101.322 130.206 101.322C131.846 101.322 133.264 101.681 134.46 102.4C135.663 103.111 136.588 104.119 137.237 105.423C137.893 106.728 138.221 108.279 138.221 110.076V110.099C138.221 111.896 137.893 113.451 137.237 114.763C136.588 116.068 135.667 117.08 134.471 117.798C133.276 118.509 131.854 118.865 130.206 118.865ZM130.206 116.251C131.221 116.251 132.096 115.998 132.831 115.49C133.573 114.982 134.143 114.271 134.542 113.357C134.94 112.435 135.139 111.349 135.139 110.099V110.076C135.139 108.818 134.936 107.732 134.53 106.818C134.131 105.896 133.561 105.185 132.819 104.685C132.085 104.185 131.213 103.935 130.206 103.935C129.198 103.935 128.323 104.185 127.581 104.685C126.838 105.185 126.264 105.892 125.858 106.806C125.46 107.72 125.26 108.81 125.26 110.076V110.099C125.26 111.349 125.46 112.435 125.858 113.357C126.264 114.279 126.835 114.994 127.569 115.501C128.311 116.001 129.19 116.251 130.206 116.251ZM143.715 118.548V101.638H146.41L156.148 115.583L153.429 113.462H154.754V101.638H157.742V118.548H155.058L145.308 104.556L148.015 106.689H146.691V118.548H143.715Z" fill="black"/>
<path d="M58.7976 130.228H62.8136V131.316H58.7976V130.228ZM55.2936 126.564H56.3816V129.156C56.3816 129.956 56.2803 130.746 56.0776 131.524C55.8856 132.303 55.6083 133.028 55.2456 133.7C54.883 134.372 54.4563 134.97 53.9656 135.492C53.4856 136.015 52.9576 136.431 52.3816 136.74L51.5496 135.668C52.083 135.412 52.5736 135.055 53.0216 134.596C53.4803 134.138 53.8803 133.615 54.2216 133.028C54.563 132.431 54.8243 131.807 55.0056 131.156C55.1976 130.495 55.2936 129.828 55.2936 129.156V126.564ZM55.5656 126.564H56.6376V129.156C56.6376 129.807 56.7283 130.452 56.9096 131.092C57.1016 131.732 57.3683 132.335 57.7096 132.9C58.051 133.455 58.4456 133.951 58.8936 134.388C59.3523 134.826 59.843 135.167 60.3656 135.412L59.5656 136.484C58.9896 136.186 58.4563 135.786 57.9656 135.284C57.475 134.783 57.0483 134.207 56.6856 133.556C56.3336 132.906 56.0563 132.207 55.8536 131.46C55.6616 130.714 55.5656 129.946 55.5656 129.156V126.564ZM62.1576 125.316H63.4696V139.812H62.1576V125.316ZM76.7964 125.316H78.1244V139.812H76.7964V125.316ZM67.1004 126.548H68.4284V130.356H72.6044V126.548H73.9164V136.324H67.1004V126.548ZM68.4284 131.412V135.22H72.6044V131.412H68.4284ZM86.7951 126.308H87.9631V127.428C87.9631 128.058 87.8511 128.655 87.6271 129.22C87.4138 129.786 87.1151 130.314 86.7311 130.804C86.3578 131.284 85.9205 131.716 85.4191 132.1C84.9285 132.484 84.4005 132.81 83.8351 133.076C83.2805 133.343 82.7151 133.546 82.1391 133.684L81.5471 132.58C82.0485 132.474 82.5498 132.308 83.0511 132.084C83.5631 131.86 84.0431 131.588 84.4911 131.268C84.9391 130.938 85.3338 130.57 85.6751 130.164C86.0271 129.759 86.2991 129.327 86.4911 128.868C86.6938 128.399 86.7951 127.919 86.7951 127.428V126.308ZM87.0511 126.308H88.1871V127.428C88.1871 127.919 88.2885 128.399 88.4911 128.868C88.6938 129.327 88.9658 129.759 89.3071 130.164C89.6591 130.57 90.0591 130.938 90.5071 131.268C90.9551 131.588 91.4298 131.866 91.9311 132.1C92.4431 132.324 92.9551 132.484 93.4671 132.58L92.8591 133.684C92.2831 133.546 91.7178 133.343 91.1631 133.076C90.6085 132.81 90.0805 132.484 89.5791 132.1C89.0885 131.716 88.6511 131.284 88.2671 130.804C87.8831 130.314 87.5845 129.786 87.3711 129.22C87.1578 128.655 87.0511 128.058 87.0511 127.428V126.308ZM81.0031 136.74H94.1231V137.844H81.0031V136.74ZM100.222 136.9H113.342V138.004H100.222V136.9ZM106.094 133.812H107.406V137.364H106.094V133.812ZM101.822 126.388H111.71V130.772H103.166V133.668H101.854V129.716H110.398V127.476H101.822V126.388ZM101.854 133.108H112.046V134.196H101.854V133.108ZM125.469 125.316H126.797V134.212H125.469V125.316ZM115.821 131.716H117.005C118.05 131.716 118.967 131.706 119.757 131.684C120.557 131.663 121.293 131.615 121.965 131.54C122.647 131.466 123.335 131.359 124.029 131.22L124.173 132.308C123.458 132.447 122.754 132.554 122.061 132.628C121.367 132.703 120.615 132.756 119.805 132.788C119.005 132.81 118.071 132.82 117.005 132.82H115.821V131.716ZM115.821 126.452H122.621V127.54H117.133V132.324H115.821V126.452ZM121.997 134.244C122.999 134.244 123.863 134.356 124.589 134.58C125.314 134.794 125.874 135.108 126.269 135.524C126.663 135.93 126.861 136.426 126.861 137.012C126.861 137.588 126.663 138.084 126.269 138.5C125.874 138.916 125.314 139.231 124.589 139.444C123.863 139.668 122.999 139.78 121.997 139.78C120.994 139.78 120.13 139.668 119.405 139.444C118.679 139.231 118.119 138.916 117.725 138.5C117.341 138.084 117.149 137.588 117.149 137.012C117.149 136.426 117.341 135.93 117.725 135.524C118.119 135.108 118.679 134.794 119.405 134.58C120.13 134.356 120.994 134.244 121.997 134.244ZM121.997 135.3C121.261 135.3 120.626 135.37 120.093 135.508C119.57 135.636 119.17 135.828 118.893 136.084C118.615 136.34 118.477 136.65 118.477 137.012C118.477 137.364 118.615 137.668 118.893 137.924C119.17 138.18 119.57 138.378 120.093 138.516C120.626 138.655 121.261 138.724 121.997 138.724C122.733 138.724 123.362 138.655 123.885 138.516C124.407 138.378 124.813 138.18 125.101 137.924C125.389 137.668 125.533 137.364 125.533 137.012C125.533 136.65 125.389 136.34 125.101 136.084C124.813 135.828 124.407 135.636 123.885 135.508C123.362 135.37 122.733 135.3 121.997 135.3ZM140.031 132.548H141.343V135.076H140.031V132.548ZM134.159 132.084H147.231V133.172H134.159V132.084ZM140.687 134.676C142.234 134.676 143.445 134.895 144.319 135.332C145.194 135.77 145.631 136.399 145.631 137.22C145.631 138.031 145.194 138.655 144.319 139.092C143.445 139.54 142.234 139.764 140.687 139.764C139.141 139.764 137.925 139.54 137.039 139.092C136.165 138.655 135.727 138.031 135.727 137.22C135.727 136.399 136.165 135.77 137.039 135.332C137.925 134.895 139.141 134.676 140.687 134.676ZM140.687 135.716C139.93 135.716 139.279 135.775 138.735 135.892C138.202 136.01 137.791 136.18 137.503 136.404C137.215 136.628 137.071 136.9 137.071 137.22C137.071 137.54 137.215 137.812 137.503 138.036C137.791 138.26 138.202 138.431 138.735 138.548C139.279 138.676 139.93 138.74 140.687 138.74C141.445 138.74 142.09 138.676 142.623 138.548C143.167 138.431 143.583 138.26 143.871 138.036C144.159 137.812 144.303 137.54 144.303 137.22C144.303 136.9 144.159 136.628 143.871 136.404C143.583 136.18 143.167 136.01 142.623 135.892C142.09 135.775 141.445 135.716 140.687 135.716ZM139.839 126.516H141.007V126.948C141.007 127.418 140.906 127.85 140.703 128.244C140.511 128.639 140.239 129.007 139.887 129.348C139.535 129.679 139.119 129.972 138.639 130.228C138.17 130.484 137.658 130.698 137.103 130.868C136.549 131.028 135.967 131.146 135.359 131.22L134.879 130.164C135.402 130.111 135.903 130.02 136.383 129.892C136.874 129.754 137.327 129.588 137.743 129.396C138.17 129.194 138.538 128.964 138.847 128.708C139.157 128.452 139.397 128.175 139.567 127.876C139.749 127.578 139.839 127.268 139.839 126.948V126.516ZM140.383 126.516H141.551V126.948C141.551 127.279 141.637 127.594 141.807 127.892C141.989 128.18 142.234 128.452 142.543 128.708C142.853 128.954 143.215 129.178 143.631 129.38C144.058 129.572 144.511 129.738 144.991 129.876C145.482 130.015 145.989 130.111 146.511 130.164L146.031 131.22C145.423 131.146 144.842 131.028 144.287 130.868C143.733 130.698 143.215 130.484 142.735 130.228C142.266 129.972 141.855 129.679 141.503 129.348C141.151 129.018 140.874 128.65 140.671 128.244C140.479 127.839 140.383 127.407 140.383 126.948V126.516ZM135.359 125.988H146.047V127.06H135.359V125.988ZM159.406 125.316H160.734V133.092H159.406V125.316ZM151.422 133.812H152.718V135.556H159.422V133.812H160.734V139.604H151.422V133.812ZM152.718 136.612V138.516H159.422V136.612H152.718ZM152.974 126.004C153.71 126.004 154.361 126.148 154.926 126.436C155.491 126.714 155.934 127.103 156.254 127.604C156.585 128.106 156.75 128.687 156.75 129.348C156.75 129.999 156.585 130.58 156.254 131.092C155.934 131.594 155.491 131.983 154.926 132.26C154.361 132.538 153.71 132.676 152.974 132.676C152.249 132.676 151.598 132.538 151.022 132.26C150.457 131.983 150.009 131.594 149.678 131.092C149.358 130.58 149.198 129.999 149.198 129.348C149.198 128.687 149.358 128.106 149.678 127.604C150.009 127.103 150.457 126.714 151.022 126.436C151.598 126.148 152.249 126.004 152.974 126.004ZM152.974 127.124C152.494 127.124 152.067 127.22 151.694 127.412C151.321 127.594 151.027 127.855 150.814 128.196C150.601 128.527 150.494 128.911 150.494 129.348C150.494 129.775 150.601 130.159 150.814 130.5C151.027 130.831 151.321 131.092 151.694 131.284C152.067 131.476 152.494 131.572 152.974 131.572C153.454 131.572 153.881 131.476 154.254 131.284C154.627 131.092 154.921 130.831 155.134 130.5C155.347 130.159 155.454 129.775 155.454 129.348C155.454 128.911 155.347 128.527 155.134 128.196C154.921 127.855 154.627 127.594 154.254 127.412C153.881 127.22 153.454 127.124 152.974 127.124ZM174.125 125.316H175.437V139.796H174.125V125.316ZM164.509 126.74H165.821V135.7H164.509V126.74ZM164.509 134.916H165.693C166.802 134.916 167.928 134.868 169.069 134.772C170.221 134.666 171.405 134.49 172.621 134.244L172.797 135.364C171.538 135.631 170.328 135.818 169.165 135.924C168.002 136.02 166.845 136.068 165.693 136.068H164.509V134.916ZM188.108 125.316H189.436V139.812H188.108V125.316ZM189.132 131.028H191.804V132.132H189.132V131.028ZM178.94 135.076H180.076C180.961 135.076 181.772 135.066 182.508 135.044C183.254 135.012 183.969 134.959 184.652 134.884C185.345 134.81 186.049 134.708 186.764 134.58L186.924 135.716C186.177 135.844 185.452 135.946 184.748 136.02C184.054 136.095 183.329 136.143 182.572 136.164C181.814 136.186 180.982 136.196 180.076 136.196H178.94V135.076ZM178.94 126.724H185.644V127.812H180.252V135.588H178.94V126.724Z" fill="#AAAAAA"/>
<defs>
<linearGradient id="paint0_linear_469_1183" x1="121.5" y1="0" x2="121.5" y2="86.5484" gradientUnits="userSpaceOnUse">
<stop stop-color="#FF7038" stop-opacity="0.2"/>
<stop offset="1" stop-color="#DF4F16"/>
</linearGradient>
</defs>
</svg>
